<svg width="100" height="100" viewBox="0 0 100 100" fill="none" xmlns="http://www.w3.org/2000/svg">
<path d="M49.8973 65.7116L58.4417 33.8098H90L87.1233 44.4151H69.2188L68.36 47.7212H86.2645L83.6884 57.2531H65.8268L63.5511 65.7116H49.8973Z" fill="black"/>
<path d="M10 65.7116L18.5444 33.8098H43.4475C49.1151 33.8098 51.7772 36.2572 51.7772 41.5384C51.7772 45.4027 50.7897 49.4816 49.5016 52.0149C46.8824 57.2102 43.5334 58.6271 36.7494 58.6271H25.5001L23.6109 65.7116H10ZM27.604 50.6839H31.8117C36.0195 50.6839 38.1234 49.1381 38.1234 45.9179C38.1234 44.2004 37.05 43.4276 34.7744 43.4276H29.5361L27.604 50.6839Z" fill="black"/>
</svg>
