<svg width="336" height="57" viewBox="0 0 336 57" fill="none" xmlns="http://www.w3.org/2000/svg">
<path d="M46.4949 55.6701V43.063H19.0376L45.7215 12.0478V0.136719H0.938965V12.7439H27.7775L1.24834 43.9911V55.6701H46.4949Z" fill="url(#paint0_linear_1117_2132)"/>
<path d="M78.792 55.6701V34.4777H99.1336V24.3456H78.792V10.3462H102.924V0.136719H67.0356V55.6701H78.792Z" fill="black"/>
<path d="M126.651 56.3662C136.706 56.3662 143.899 51.0294 146.22 41.6707H135.546C134.308 45.77 131.137 48.0904 126.419 48.0904C120.928 48.0904 117.679 44.3778 116.983 37.6488H146.297C148.231 24.1909 139.568 13.5947 126.497 13.5947C114.586 13.5947 106 22.5666 106 34.8644C106 47.781 114.276 56.3662 126.651 56.3662ZM126.265 21.4838C131.369 21.4838 134.618 25.119 134.927 30.8425H117.138C118.066 24.7323 121.237 21.4838 126.265 21.4838Z" fill="black"/>
<path d="M164.326 55.6701V0.136719H153.498V55.6701H164.326Z" fill="black"/>
<path d="M184.795 55.6701V0.136719H173.967V55.6701H184.795Z" fill="black"/>
<path d="M212.689 56.4436C224.678 56.4436 233.65 47.0075 233.65 35.0191C233.65 22.9534 224.678 13.5947 212.689 13.5947C200.701 13.5947 191.729 22.9534 191.729 35.0191C191.729 47.0075 200.701 56.4436 212.689 56.4436ZM212.689 46.9302C207.353 46.9302 202.789 42.6762 202.789 35.0191C202.789 27.362 207.353 23.1854 212.689 23.1854C218.026 23.1854 222.589 27.362 222.589 35.0191C222.589 42.6762 218.026 46.9302 212.689 46.9302Z" fill="black"/>
<path d="M273.33 55.6701H284.003L295.837 14.3681H285.241L278.28 40.5106L270.932 14.3681H260.336L252.756 40.5106L245.718 14.3681H235.276L247.033 55.6701H257.784L265.518 28.8316L273.33 55.6701Z" fill="black"/>
<path d="M335.063 42.4442C335.063 36.4887 330.964 32.7761 322.92 31.2292L314.953 29.7597C311.241 29.0636 309.539 28.0581 309.539 25.5831C309.539 22.9534 312.169 21.4838 316.114 21.4838C320.677 21.4838 323.693 23.9588 324.08 27.9808H334.367C333.593 19.0861 326.478 13.5947 316.114 13.5947C305.827 13.5947 299.252 18.9314 299.252 26.5886C299.252 33.0082 303.738 37.1074 311.163 38.4223L318.589 39.8145C322.533 40.5879 324.235 41.6707 324.235 44.3005C324.235 47.2396 321.064 48.5544 316.887 48.5544C311.55 48.5544 307.915 45.8474 307.838 41.5934H297.551C298.402 50.7974 304.976 56.4436 316.732 56.4436C328.489 56.4436 335.063 51.1068 335.063 42.4442Z" fill="black"/>
<defs>
<linearGradient id="paint0_linear_1117_2132" x1="42.5088" y1="3.55066" x2="-6.44412" y2="44.0048" gradientUnits="userSpaceOnUse">
<stop stop-color="#4AAEFF"/>
<stop offset="1" stop-color="#2067FF"/>
</linearGradient>
</defs>
</svg>
